# xmcd
#
# Track frame offsets:
#	150
#	16180
#	35608
#	55037
#	71037
#	84752
#	96181
#	115609
#	138609
#	163467
#	174610
#	190609
#	211178
#	231458
#	244323
#	264895
#	285466
#	308324
#
# Disc length: 4336 seconds
#
# Revision: 0
# Processed by: cddbd v1.5.2PL0 Copyright (c) Steve Scherf et al.
# Submitted via: EasyCDDAExtractor 2010.6.0.0
#
DISCID=ef10ee12
DTITLE=Various Artist - Beefree 2013
DYEAR=1900
DGENRE=
TTITLE0=Submantra - 2:45 AM (Biomin H and Benco remix)
TTITLE1=Marco Calanni - Flare (Tomin Tomovic Deep Tech Remix)
TTITLE2=RiZa - Synergy
TTITLE3=Ika Sali - Everyday (Tommi Oskari remix)
TTITLE4=Raavn - Chicago
TTITLE5=PT Kozel - Tech Funk
TTITLE6=Nevy - House Feeling
TTITLE7=Aamon - High Tide
TTITLE8=Greiner and Boyle - Just Can't Wait For You (Bollo remix)
TTITLE9=Midi Killer - People Without Borders
TTITLE10=Matt De La Peet - Got It
TTITLE11=Biomin H - Invitation
TTITLE12=Paul Hubiss - 2012
TTITLE13=Transparentman - Far Beyond
TTITLE14=Bennito V - Welcome Back Gary (Drahosh remix)
TTITLE15=Bennito V - Sunset
TTITLE16=Bassbeatz - Mountains
TTITLE17=Yanco - Bitch
EXTD=
EXTT0=
EXTT1=
EXTT2=
EXTT3=
EXTT4=
EXTT5=
EXTT6=
EXTT7=
EXTT8=
EXTT9=
EXTT10=
EXTT11=
EXTT12=
EXTT13=
EXTT14=
EXTT15=
EXTT16=
EXTT17=
PLAYORDER=
